<svg id="visual" viewBox="0 0 900 600" width="900" height="600" xmlns="http://www.w3.org/2000/svg" xmlns:xlink="http://www.w3.org/1999/xlink" version="1.1"><rect x="0" y="0" width="900" height="600" fill="#C62368"></rect><g transform="translate(427.269911245299 307.6976022491606)"><path d="M134 -234C175.8 -208.1 213 -176.3 236.4 -136.3C259.9 -96.3 269.4 -48.2 265 -2.6C260.5 43 242 86 220.3 129C198.6 172 173.8 215.1 136.6 237.9C99.3 260.7 49.7 263.4 3 258.2C-43.7 253 -87.3 239.9 -119.8 214.3C-152.3 188.8 -173.6 150.6 -189.9 112.8C-206.2 75 -217.6 37.5 -220.1 -1.4C-222.5 -40.3 -216.1 -80.7 -198.1 -115.7C-180.2 -150.8 -150.9 -180.6 -115.9 -210.5C-81 -240.3 -40.5 -270.1 2.8 -275.1C46.2 -280 92.3 -259.9 134 -234" fill="#BB004B"></path></g></svg>