<svg id="visual" viewBox="0 0 900 600" width="900" height="600" xmlns="http://www.w3.org/2000/svg" xmlns:xlink="http://www.w3.org/1999/xlink" version="1.1"><rect x="0" y="0" width="900" height="600" fill="#C62368"></rect><g transform="translate(458.5969954848621 304.853663207076)"><path d="M90.7 -176C112.3 -144.5 121.1 -109.8 149.2 -79.9C177.3 -50 224.6 -25 245.1 11.8C265.6 48.7 259.3 97.3 228.4 122.4C197.6 147.6 142.3 149.1 100.1 170.8C58 192.5 29 234.2 -1.9 237.5C-32.8 240.9 -65.7 205.7 -100 179.6C-134.4 153.4 -170.2 136.2 -202.2 107.8C-234.1 79.3 -262 39.7 -271 -5.2C-279.9 -50 -269.9 -100 -243.8 -138.5C-217.7 -177.1 -175.6 -204.2 -132.3 -223.2C-89 -242.2 -44.5 -253.1 -5 -244.4C34.5 -235.8 69 -207.5 90.7 -176" fill="#BB004B"></path></g></svg>