<svg id="visual" viewBox="0 0 900 600" width="900" height="600" xmlns="http://www.w3.org/2000/svg" xmlns:xlink="http://www.w3.org/1999/xlink" version="1.1"><rect x="0" y="0" width="900" height="600" fill="#C62368"></rect><g transform="translate(439.38976075214794 372.01347537908026)"><path d="M157.1 -291.3C194.2 -250.7 208.4 -189.6 227.2 -137.6C246 -85.7 269.5 -42.8 278.9 5.4C288.3 53.7 283.6 107.3 256.6 145.1C229.6 183 180.3 204.9 133.8 209.4C87.3 213.8 43.7 200.6 4.9 192.1C-33.8 183.6 -67.7 179.7 -94.8 164.1C-121.9 148.5 -142.4 121.3 -160.3 92C-178.2 62.7 -193.6 31.3 -215.4 -12.6C-237.2 -56.5 -265.4 -113 -261.8 -167.1C-258.2 -221.3 -222.9 -273 -173.9 -306.8C-125 -340.5 -62.5 -356.3 -1.3 -354.1C60 -351.9 120 -331.8 157.1 -291.3" fill="#BB004B"></path></g></svg>