<svg id="visual" viewBox="0 0 960 540" width="960" height="540" xmlns="http://www.w3.org/2000/svg" xmlns:xlink="http://www.w3.org/1999/xlink" version="1.1"><rect x="0" y="0" width="960" height="540" fill="#Fff"></rect><path d="M0 426L32 419.3C64 412.7 128 399.3 192 356.7C256 314 320 242 384 232C448 222 512 274 576 309.5C640 345 704 364 768 353.2C832 342.3 896 301.7 928 281.3L960 261L960 541L928 541C896 541 832 541 768 541C704 541 640 541 576 541C512 541 448 541 384 541C320 541 256 541 192 541C128 541 64 541 32 541L0 541Z" fill="#fa7268"></path><path d="M0 457L32 454.5C64 452 128 447 192 427.5C256 408 320 374 384 385.5C448 397 512 454 576 451.3C640 448.7 704 386.3 768 366.3C832 346.3 896 368.7 928 379.8L960 391L960 541L928 541C896 541 832 541 768 541C704 541 640 541 576 541C512 541 448 541 384 541C320 541 256 541 192 541C128 541 64 541 32 541L0 541Z" fill="#f56a67"></path><path d="M0 512L32 509.3C64 506.7 128 501.3 192 487.3C256 473.3 320 450.7 384 409C448 367.3 512 306.7 576 294.7C640 282.7 704 319.3 768 322.2C832 325 896 294 928 278.5L960 263L960 541L928 541C896 541 832 541 768 541C704 541 640 541 576 541C512 541 448 541 384 541C320 541 256 541 192 541C128 541 64 541 32 541L0 541Z" fill="#f06167"></path><path d="M0 463L32 464.3C64 465.7 128 468.3 192 462.2C256 456 320 441 384 411.7C448 382.3 512 338.7 576 341.8C640 345 704 395 768 407.3C832 419.7 896 394.3 928 381.7L960 369L960 541L928 541C896 541 832 541 768 541C704 541 640 541 576 541C512 541 448 541 384 541C320 541 256 541 192 541C128 541 64 541 32 541L0 541Z" fill="#eb5967"></path><path d="M0 405L32 416C64 427 128 449 192 460.3C256 471.7 320 472.3 384 450.5C448 428.7 512 384.3 576 366.8C640 349.3 704 358.7 768 370.2C832 381.7 896 395.3 928 402.2L960 409L960 541L928 541C896 541 832 541 768 541C704 541 640 541 576 541C512 541 448 541 384 541C320 541 256 541 192 541C128 541 64 541 32 541L0 541Z" fill="#e65067"></path><path d="M0 363L32 368.3C64 373.7 128 384.3 192 382C256 379.7 320 364.3 384 379C448 393.7 512 438.3 576 448.8C640 459.3 704 435.7 768 419.7C832 403.7 896 395.3 928 391.2L960 387L960 541L928 541C896 541 832 541 768 541C704 541 640 541 576 541C512 541 448 541 384 541C320 541 256 541 192 541C128 541 64 541 32 541L0 541Z" fill="#e04867"></path><path d="M0 406L32 401.5C64 397 128 388 192 396C256 404 320 429 384 445.5C448 462 512 470 576 468.2C640 466.3 704 454.7 768 437C832 419.3 896 395.7 928 383.8L960 372L960 541L928 541C896 541 832 541 768 541C704 541 640 541 576 541C512 541 448 541 384 541C320 541 256 541 192 541C128 541 64 541 32 541L0 541Z" fill="#da3f67"></path><path d="M0 530L32 520C64 510 128 490 192 475.7C256 461.3 320 452.7 384 459.7C448 466.7 512 489.3 576 500.5C640 511.7 704 511.3 768 501.3C832 491.3 896 471.7 928 461.8L960 452L960 541L928 541C896 541 832 541 768 541C704 541 640 541 576 541C512 541 448 541 384 541C320 541 256 541 192 541C128 541 64 541 32 541L0 541Z" fill="#d43667"></path><path d="M0 494L32 487.8C64 481.7 128 469.3 192 467.3C256 465.3 320 473.7 384 472.7C448 471.7 512 461.3 576 466.5C640 471.7 704 492.3 768 502.8C832 513.3 896 513.7 928 513.8L960 514L960 541L928 541C896 541 832 541 768 541C704 541 640 541 576 541C512 541 448 541 384 541C320 541 256 541 192 541C128 541 64 541 32 541L0 541Z" fill="#cd2d68"></path><path d="M0 475L32 477.5C64 480 128 485 192 492C256 499 320 508 384 515.2C448 522.3 512 527.7 576 529C640 530.3 704 527.7 768 520C832 512.3 896 499.7 928 493.3L960 487L960 541L928 541C896 541 832 541 768 541C704 541 640 541 576 541C512 541 448 541 384 541C320 541 256 541 192 541C128 541 64 541 32 541L0 541Z" fill="#c62368"></path></svg>